<?xml version="1.0" standalone="no"?>
<!DOCTYPE svg PUBLIC "-//W3C//DTD SVG 1.1//EN" "http://www.w3.org/Graphics/SVG/1.1/DTD/svg11.dtd" >
<!--
2013-9-30: Created.
-->
<svg>
<metadata>
Created by iconfont
</metadata>
<defs>

<font id="iconfont" horiz-adv-x="1024" >
  <font-face
    font-family="iconfont"
    font-weight="500"
    font-stretch="normal"
    units-per-em="1024"
    ascent="896"
    descent="-128"
  />
    <missing-glyph />
    
    <glyph glyph-name="shu" unicode="&#58881;" d="M838.374502 391.139442q2.039841-8.159363 5.099602-17.338645l4.079681-16.318725q2.039841-8.159363 2.039841-13.258964 0-28.557769-15.298805-50.486056t-39.776892-32.12749q-9.179283-1.01992-19.378486-1.01992-8.159363-1.01992-18.358566-1.01992l-19.378486 0-159.10757-2.039841 0-170.326693q0-37.737052 1.52988-75.984064t3.569721-68.844622q2.039841-36.717131 5.099602-70.374502l-146.868526 0 3.059761 39.776892q1.01992 23.458167 2.039841 63.74502t1.01992 107.601594l0 156.047809q-17.338645-15.298805-38.756972-15.298805-17.338645 0-30.087649 8.159363t-20.908367 22.438247l-115.250996 6.119522q-33.657371 8.159363-56.095618 34.167331t-22.438247 61.705179q0 6.119522 1.01992 11.219124t3.059761 10.199203l25.498008 59.155378q2.039841 22.438247 12.749004 41.816733t27.027888 33.657371l160.12749 296.796813 1.01992 0q19.378486 35.697211 45.896414 61.195219t68.334661 25.498008q36.717131 0 65.784861-19.378486t43.346614-50.996016l128.50996-251.920319q34.677291-12.239044 57.115538-42.836653t22.438247-70.374502q0-16.318725-5.099602-34.677291z"  horiz-adv-x="1024" />

    
    <glyph glyph-name="shoucangjia" unicode="&#58880;" d="M781.186088 279.968127q17.338645-80.573705 30.59761-145.848606 6.119522-27.537849 11.219124-55.075697t9.689243-49.976096 7.649402-38.247012 4.079681-19.888446q3.059761-20.398406-9.179283-27.027888t-27.537849-6.629482q-5.099602 0-14.788845 3.569721t-14.788845 5.609562l-266.199203 155.027888q-72.414343-42.836653-131.569721-76.494024-25.498008-14.278884-50.486056-28.557769t-45.386454-26.517928-35.187251-20.398406-19.888446-10.199203q-10.199203-5.099602-20.908367-3.569721t-19.378486 7.649402-12.749004 14.788845-2.039841 17.848606q1.01992 4.079681 5.099602 19.888446t9.179283 37.737052 11.729084 48.446215 13.768924 54.055777q15.298805 63.23506 34.677291 142.788845-60.175299 52.015936-108.111554 92.812749-20.398406 17.338645-40.286853 34.167331t-35.697211 30.59761-26.007968 22.438247-11.219124 9.689243q-12.239044 11.219124-20.908367 24.988048t-6.629482 28.047809 11.219124 22.438247 20.398406 10.199203l315.155378 28.557769 117.290837 273.338645q6.119522 16.318725 17.338645 28.047809t30.59761 11.729084q10.199203 0 17.848606-4.589641t12.749004-10.709163 8.669323-12.239044 5.609562-10.199203l114.231076-273.338645 315.155378-29.577689q20.398406-5.099602 28.557769-12.239044t8.159363-22.438247q0-14.278884-8.669323-24.988048t-21.928287-26.007968z"  horiz-adv-x="1024" />

    
    <glyph glyph-name="feiji" unicode="&#58883;" d="M920.648832 467.13066667l-242.11597973 0.2783392L537.75507947 776.2368128c-15.94239893 27.0775008-30.4297344 55.94619627-83.92873707 55.900352-27.24671253-0.03711147-83.98440747-0.11133547-84.0684576-84.06501333l27.93221867-280.35751894-200.35573547 0.22267094-70.19458667 116.96144213c-10.2913344 17.49171413-22.43943147 23.99612053-37.42561493 23.2822624-8.07326187-0.87322133-53.47171307 5.84621653-53.49026987-30.5125344l24.1652064-193.46217707L36.2151648 190.75394559999995c-0.0283808-26.32543893 20.42548267-30.33461653 52.9881472-31.16090133 21.20486507 0.02728853 24.37806293 7.76730347 36.628768 26.40184533l71.7631744 114.0557984 199.58508587 0.3438304-28.17454827-280.1359392c-0.0742272-83.9613184 56.6831168-83.92638933 83.91018027-83.90565013 53.49026987 0.074224 68.06165547 28.9712992 84.04116906 56.08591146l141.8627936 308.446864 241.81907307 0.42569494c47.68965973 0.06658347 94.75930773 34.9583232 94.82370987 82.38624533C1015.52712107 431.12557013 968.32976 467.18742613 920.648832 467.13066667zM926.2169376 345.86424320000003l-283.77470827-0.51083413L492.5061728 24.156422399999997c-9.31765333-17.70456213-28.61990933-31.81036053-39.53343893-31.81036053-31.014816-0.019648-34.66939733 18.41077973-34.03846934 30.77122666l48.0695264 321.9304928-303.69806826-0.53812266-74.01726934-128.57965227c0.0185568 21.5478272 21.3533184 168.62012267 21.3533184 171.6643904 0.0087328 1.99531093-21.03785387 146.34970453-21.02912213 164.2310944l70.94667947-123.35451413 306.1202656-2.79321707-47.74642134 319.6197312c-0.53814507 9.98419413 6.43153813 30.81707093 34.83749867 30.84435947 10.90479787 0.009824 29.09255893-14.8556768 38.33598507-32.5427744l149.547456-319.5258592 284.50824426-2.57927787c20.0543488 0.00873173 38.6885632-20.66587307 38.6601824-38.25145813C964.8214496 365.6492544 946.2527296 345.89153173 926.2169376 345.86424320000003z"  horiz-adv-x="1024" />

    
    <glyph glyph-name="15tian" unicode="&#58887;" d="M188.783109 701.436746C256.76441 769.42828 344.458681 813.538917 441.342242 827.453834c118.413923 17.022699 236.411361-13.171997 332.180542-84.883249 95.788623-71.765487 157.907403-176.526459 174.928055-294.939359 35.116799-244.617254-135.326105-472.080825-379.789862-507.219113-102.507652-14.703887-207.618595 6.782473-295.991318 60.432371-15.09786 9.188266-19.911492 28.881794-10.743692 43.979654 9.254781 14.96483 28.860305 19.909445 43.97863 10.721179 75.68168-45.991474 165.783791-64.370053 253.67556-51.768037 209.499431 30.062689 355.569228 225.055732 325.505515 434.753685-14.57188 101.522208-67.826781 191.273325-149.941987 252.756631C653.052015 752.799554 551.92378 778.618593 450.422038 764.00271c-209.717396-30.052456-355.744213-225.089501-325.616032-434.697403 7.898901-54.875818 26.934442-106.161878 56.71163-152.37234 9.540284-14.921851 5.186116-34.788318-9.583263-44.240597-14.855336-9.582239-34.678824-5.294586-44.240597 9.53926-34.745339 54.087872-56.997132 113.907283-66.251913 177.970344-17.000186 118.414947 13.149485 236.479923 84.959997 332.268546C159.442874 669.9291479999999 173.620781 686.2959069999999 188.783109 701.436746L188.783109 701.436746 188.783109 701.436746zM461.471698 505.700783M332.710103 198.33644000000004L332.710103 539.6694319999999l-53.54245 0c-13.385868 0-20.078291 7.42511-20.078291 22.309098 0 11.886725 6.693446 18.579147 20.078291 20.078291l89.237417 0c10.387581 0 15.616676-4.461615 15.616676-13.385868l0-370.335537c-1.499144-14.883989-10.422374-22.309098-26.771737-22.309098C340.866876 176.028365 332.710103 183.452451 332.710103 198.33644000000004zM569.189002 539.6694319999999l-15.615653-111.546515c14.848173 7.42511 32.695656 11.886725 53.541427 13.385868 62.46568-7.459902 97.394191-49.079812 104.85307-124.932384-4.460592-92.235704-49.078789-139.084709-133.855614-140.54906-62.46568 1.464351-100.391455 23.041786-113.777323 64.697511 0 11.886725 5.925966 18.579147 17.847483 20.078291 4.461615 0 12.618389-5.228071 24.539906-15.616676 23.77345-17.847483 48.312332-26.771737 73.619718-26.771737 47.581692 2.963495 73.621764 32.697703 78.083379 89.237417-2.998287 55.006801-26.771737 84.009346-71.389934 87.00661-16.383132 0-34.230616-3.729951-53.541427-11.154038-7.460925-2.997264-12.653181-4.462638-15.617699-4.462638-11.921517 0-17.847483 5.194302-17.847483 15.616676 0 4.461615 1.465374 15.616676 4.462638 33.464159l22.308075 140.54906c-1.499144 8.924253 4.460592 13.385868 17.847483 13.385868l140.54906 0c13.384845-1.499144 20.809955-8.191566 22.309098-20.078291-1.499144-14.883989-8.924253-22.309098-22.309098-22.309098L569.189002 539.670455z"  horiz-adv-x="1024" />

    
    <glyph glyph-name="yingyuanb" unicode="&#58910;" d="M44.9575936-33.01446720000001l934.0848128 0 0-42.45820267-934.0848128 0 0 42.45820267ZM214.79149333 136.65024640000001l594.41701334 0 0-42.45820267-594.41701334 0 0 42.45820267ZM894.12491093 879.6720576L129.87399787 879.6720576c-46.89853227 0-84.91640427-38.017872-84.91640427-84.91640427l0-627.7762496 0-73.00239146c111.820352 148.79254187 191.67862187 322.892128 229.65610773 512.1519264 75.63515307-19.94874027 155.2270912-30.6064064 237.3906656-30.6064064 82.16139093 0 161.74896213 10.65657387 237.3819328 30.60422293 37.97857707-189.25979947 117.83575573-363.35829333 229.65501654-512.149744l0 1.93091093 0 71.07148054L979.0413152 794.75565333C979.0424064 841.65418667 941.0245344 879.6720576 894.12491093 879.6720576z"  horiz-adv-x="1024" />

    
    <glyph glyph-name="yingpianb" unicode="&#58913;" d="M988.70780245-78.51504525999997L726.3967835-78.51504525999997c175.31954859 80.57736761 297.05940423 257.72951666 297.05940423 463.31957361 0 281.47182137-228.18087253 509.65152995-509.65152995 509.65152996S4.15312669 666.27634973 4.15312669 384.80452835s228.18087253-509.65152995 509.65152995-509.65152995c3.36946973 0 6.72846165 0.04307854 10.08163043 0.1082789 0.49249735-0.06403641 0.99081557-0.1082789 1.50077668-0.1082789l463.31957362 0c6.39896576 0 11.58240711 5.18460643 11.58240711 11.58357106l0 23.16597817C1000.29020957-83.6996517 995.10560313-78.51504525999997 988.70780245-78.51504525999997zM884.46031531 384.80452835c0-76.76313714-62.22807723-138.99587243-138.99587243-138.99587242s-138.99587243 62.23273529-138.99587243 138.99587242c0 76.76779406 62.22807723 138.99587243 138.99587243 138.99587243S884.46031531 461.57232242 884.46031531 384.80452835zM513.80465778 755.46018589c76.76779406 0 138.99587243-62.23273529 138.99587243-138.99587243 0-76.76779406-62.22807723-138.99587243-138.99587243-138.99587243S374.80878535 539.69652053 374.80878535 616.46431459C374.80878535 693.22745173 437.03686258 755.46018589 513.80465778 755.46018589zM143.14899911 384.80452835c0 76.76779406 62.22807723 138.99587243 138.99587243 138.99587243s138.99587243-62.22807723 138.99587243-138.99587243c0-76.76313714-62.22807723-138.99587243-138.99587243-138.99587242S143.14899911 308.04139122000004 143.14899911 384.80452835zM374.80878535 153.14474098000005c0 76.76313714 62.22807723 138.99587243 138.99587243 138.99587243s138.99587243-62.23273529 138.99587243-138.99587243c0-76.76779406-62.22807723-138.99587243-138.99587243-138.99587243S374.80878535 76.37694691000002 374.80878535 153.14474098000005z"  horiz-adv-x="1024" />

    
    <glyph glyph-name="weixiu" unicode="&#59157;" d="M975.8922 152.92841299999998l-230.14176 230.125303c14.820545 41.375012 22.321332 84.624306 22.321332 128.94697 0 211.731736-172.249292 383.999314-383.999314 383.999314-52.713963 0-103.999814-10.62581-152.392871-31.572058l-22.893673-9.910839c-0.036571-0.036571 0.142628-0.053028 0.071314-0.0896-2.177825-0.947198-4.21485-2.322282-5.999532-4.106964-7.572101-7.588558-7.572101-19.927736 0.036571-27.536408 0.107886-0.107886-0.107886-0.160914-0.036571-0.266971l214.999388-214.999388-129.321826-129.303541L77.856775 688.90917c-0.321828-0.036571-0.643656-0.053028-1.071541 0.374856-8.928898 8.928898-23.392873 8.928898-32.321771 0-2.428339-2.446624-4.21485-5.286391-5.321133-8.321814-0.107886-0.285257-0.250514-0.142628-0.393142-0.160914l-7.107644-16.427856C10.715409 616.035243 0.071314 564.749392 0.071314 511.998857c0-211.713451 172.249292-383.999314 383.999314-383.999314 44.286092 0 87.535387 7.500787 128.963427 22.321332l230.14176-230.107018C774.248675-110.85717299999999 815.570658-128 859.534922-128c0 0 0 0 0.036571 0 43.927693 0 85.286248 17.142827 116.357278 48.213857C1040.034714-15.643629000000033 1040.034714 88.749327 975.8922 152.92841299999998zM924.213207-28.072407C906.927752-45.357861999999955 883.962764-54.857272999999964 859.569665-54.857272999999964l-0.036571 0c-24.427842 0-47.39283 9.499412-64.643542 26.784866L530.213453 236.57077800000002l-22.820531-9.857811C468.214021 209.74933999999996 426.714667 201.14226900000006 384.070628 201.14226900000006c-171.391694 0-310.856588 139.428322-310.856588 310.856588 0 23.820757 2.678852 47.268487 7.999986 70.125589l193.356455-193.393026c8.107871-6.463988 19.249337-6.553588 27.499837-0.411428l203.28558 203.28558c0.071314 0.071314-0.071314 0.160914 0 0.232228 8.285242 8.285242 8.535756 21.215048 1.428112 30.196975L313.928582 814.873745c22.893673 5.302848 46.321289 7.9817 70.142046 7.9817 171.391694 0 310.856588-139.446608 310.856588-310.856588 0-42.697067-8.60707-84.178135-25.570697-123.285723l-9.857811-22.820531L924.176635 101.21467600000005C959.820915 65.57039699999996 959.820915 7.571871999999985 924.213207-28.072407z"  horiz-adv-x="1025" />

    
    <glyph glyph-name="liwu" unicode="&#58885;" d="M905.63542798 692.5996632700001l-34.50039076 0c17.49485219 29.6631337 25.1723691 57.95643392 22.71958842 84.20057635-2.0354984 21.96450326-12.44522693 53.37873703-50.59188053 78.41449513-31.62660076 20.80579766-72.29806516 25.90882506-117.42055265 14.63596556-73.17237365-18.37164498-159.7735713-81.53170162-216.71411955-157.86102208C452.15275054 788.31775713 365.62109994 851.47905653 292.44996903 869.85070031c-45.1597447 11.34613238-85.86598446 6.20708932-117.48885814-14.63596556-38.11312101-25.03575931-48.52533385-56.44999187-50.55959071-78.41449513-2.45278189-26.24414242 5.15394643-54.53744265 22.71958844-84.20057635l-34.50039076 0c-52.23865943 0-94.75188326-42.54551487-94.75188327-94.82391461l0-122.13486174c0-41.35451822 27.276173-77.90406922 66.73925552-90.17791223-3.75058281-10.37743991-5.71404986-21.10509936-5.71404985-31.97557873l0-366.42321325c0-52.24238527 42.56165979-94.8052866 94.8052866-94.80528661l670.96554155 0c52.23990098 0 94.7344968 42.56165979 94.73449681 94.80528661L939.39936278 353.48863871000003c0 10.94002642-1.89143571 21.70246-5.64326005 32.01159441 39.40471179 12.34214851 66.61630513 48.89169829 66.61630513 90.14189655l0 122.10257192C1000.37116633 650.01937548 957.87657049 692.5996632700001 905.63542798 692.5996632700001M844.66362444-40.21323061999999L542.85847635-40.21323061999999 542.85847635 380.80082739l301.80638963 0c15.04207152 0 27.24015733-12.27011717 27.24015734-27.31218868l0-366.42321325C871.90378177-27.977887590000023 859.70569595-40.21323061999999 844.66362444-40.21323061999999M580.02277444 692.5996632700001c47.99876179 55.36455794 111.00109634 98.87255635 162.15804769 111.706504 26.57449119 6.66038849 48.31172411 4.83725827 64.05547744-5.54142317 16.72610763-10.98970393 19.70173573-20.78840999 20.3711277-28.18898027 2.66142303-27.13583616-26.43788018-63.72140283-40.18090923-77.97609934L580.02277444 692.5996632700001zM932.84205394 597.74345884l0-122.10257192c0-15.04207152-12.16579721-27.27493147-27.20662596-27.27493147L542.85847635 448.36595666 542.85847635 625.03826106l362.77695163 0C920.67625674 625.03826106 932.84205394 612.7830460499999 932.84205394 597.74345884M475.36413689 380.80082739l0-421.01405801L173.69808289-40.21323061999999c-15.07808719 0-27.27989885 12.23658579-27.27989885 27.2786573L146.41818404 353.48863871000003c0 15.04207152 12.20181166 27.31218868 27.27989885 27.31218868L475.36413689 380.80082739zM191.64996009 770.57576383c0.6644246 7.40057027 3.68103575 17.20051909 20.33635358 28.18898027 15.63446477 10.37868146 37.37293923 12.29122947 64.09149311 5.54142317 50.87255301-12.76191508 113.80658085-56.27363935 161.91090657-111.706504L231.75883798 692.5996632700001C219.45270514 705.06351942 188.94879554 742.78916369 191.64996009 770.57576383M85.34330209 597.74345884c0 15.03834567 12.20181166 27.29480223 27.276173 27.29480222l362.74342025 0 0-176.6723044L112.61947509 448.36595666c-15.07436134 0-27.276173 12.23285996-27.276173 27.27493147L85.34330209 597.74345884z"  horiz-adv-x="1024" />

    
    <glyph glyph-name="shoujika" unicode="&#58948;" d="M831.295997 896L437.482663 896 102.826663 614.698667l0-651.648c0-49.6 40.234667-89.856 89.877333-89.856l638.592 0c49.621333 0 89.877333 40.256 89.877333 89.856L921.17333 806.144C921.17333 855.765333 880.938663 896 831.295997 896zM818.815997-24.44799999999998L205.183997-24.44799999999998 205.183997 568.448 472.895997 793.621333l345.898667 0L818.794663-24.44799999999998zM441.49333 447.296l-38.613333 0c-16.618667 0-30.08 13.461333-30.08 30.08L372.799997 688.405333c0 16.597333 13.461333 30.08 30.08 30.08l38.613333 0c16.618667 0 30.101333-13.482667 62.869333-30.08l0-211.029333C471.594663 460.757333 458.111997 447.296 441.49333 447.296zM613.482663 447.296l-38.592 0c-16.64 0-30.101333 13.461333-30.101333 30.08L544.78933 688.405333c0 16.597333 13.461333 30.08 30.101333 30.08l38.592 0c16.618667 0 30.08-13.482667 30.08-30.08l0-211.029333C643.562663 460.757333 630.079997 447.296 613.482663 447.296zM719.871997 447.296l-38.592 0c-16.64 0-30.101333 13.461333-30.101333 30.08L651.178663 688.405333c0 16.597333 13.461333 30.08 30.101333 30.08l38.592 0c16.618667 0 30.101333-13.482667 30.101333-30.08l0-211.029333C749.97333 460.757333 736.490663 447.296 719.871997 447.296z"  horiz-adv-x="1024" />

    
    <glyph glyph-name="49" unicode="&#58929;" d="M336.9076704 554.9723626699999m-61.21608747 0a59.82186667 59.82186667 0 1 1 122.43217387 0 59.82186667 59.82186667 0 1 1-122.43217387 0ZM453.4215872 21.387219200000004c-110.34133333 0-218.2911328 43.34124693-298.15922667 123.21589013C75.76866133 224.07497812999998 31.98643733 329.75985920000005 31.98643733 442.17181973c0 112.4185088 43.782224 218.1121216 123.27592427 297.59927254C234.7560608 819.26479253 340.43439253 863.04701653 452.85290133 863.04701653s218.0979328-43.782224 297.591632-123.27592426c79.49479147-79.48715093 123.2835648-185.17967253 123.2835648-297.59927254 0-112.4196-43.78877333-218.10448107-123.2835648-297.5905408-17.9348736-17.91959253-46.98803733-17.92723307-64.92291093 0.00654934-17.9348736 17.92723307-17.9348736 46.99677013 0 64.93055253 62.14279253 62.14279253 96.38289173 144.7680832 96.38289173 232.65344 0 87.89299733-34.24009813 170.51828693-96.38289173 232.6763616-128.2903968 128.2903968-337.04704427 128.2903968-465.33744213 0-62.15043413-62.15807467-96.37525013-144.78336427-96.37525014-232.6763616 0-87.8853568 34.22481707-170.50409707 96.37525014-232.63815787 83.30531093-83.30531093 205.7374848-115.80442453 319.4712832-84.79306133 24.4360064 6.64303147 49.7081216-7.74983893 56.37298346-32.22950613 6.66486187-24.46547733-7.75638827-49.70048107-32.2229568-56.36643414C527.38670507 26.221590399999968 490.26170133 21.387219200000004 453.4215872 21.387219200000004zM945.2427392-96.10688852999999c-11.74810133 0-23.4940192 4.48399147-32.46200107 13.4432416L698.6439552 131.45894507000003c-17.9348736 17.9348736-17.9348736 47.00331947 0 64.92946026 17.9348736 17.9348736 46.98803733 17.92723307 64.92291093 0.00764054l214.13678187-214.1215008c17.9348736-17.9348736 17.9348736-47.00331947 0-64.92946027C968.73566613-91.62180587 956.98974827-96.10688852999999 945.2427392-96.10688852999999z"  horiz-adv-x="1024" />

    
    <glyph glyph-name="chongzhi" unicode="&#58951;" d="M390.656 690.3679999999999l158.208 0 0-19.744-158.208 0 0 19.744zM737.344 183.61599999999999c5.6-0.384 9.632 0.704 12.064 3.328s3.616 5.728 3.616 9.312c0 3.232-1.312 6.144-3.904 8.736s-6.72 3.904-12.352 3.904l-39.168 0 0 11.456c6.816 6.432 13.024 12.64 18.688 18.656 4.832 4.832 9.632 9.728 14.464 14.752s8.448 8.544 10.848 10.528c9.216 8.032 11.264 15.072 6.048 21.088-2.816 3.616-6.432 5.408-10.848 5.408s-8.448-1.6-12.064-4.832c-2.016-1.6-5.408-4.512-10.24-8.736s-9.632-8.544-14.464-12.928c-5.6-5.216-11.84-11.04-18.688-17.472l-28.928 28.896c-4 4-6.816 7.04-8.448 9.024-3.232 2.816-7.424 5.12-12.64 6.912s-9.632 0.704-13.248-3.328c-3.232-4.416-4-8.736-2.432-12.928s3.424-7.52 5.408-9.952l9.024-8.448c4.416-4.832 9.248-10.048 14.464-15.648 6.048-6.432 12.64-13.248 19.872-20.448l-0.608-12.64-40.96 0c-3.616 0-6.72-1.408-9.344-4.192s-3.904-5.824-3.904-9.024c0-3.232 1.216-6.016 3.616-8.448s5.6-3.616 9.632-3.616l40.96 0 0-21.088-40.96 0c-3.616 0-6.72-1.12-9.344-3.328s-3.904-5.12-3.904-8.736c-0.384-3.232 0.704-5.92 3.328-8.128s5.92-3.328 9.952-3.328l40.96 0 0-12.064c0.384-5.6 2.208-9.536 5.408-11.744s7.232-3.328 12.064-3.328c4.832-0.384 8.736 1.12 11.744 4.512s4.544 6.912 4.544 10.528l0 12.064 42.144 0c4 0 7.328 0.896 9.952 2.688s3.712 4.736 3.328 8.736c0 8.448-5.6 12.64-16.864 12.64l-38.56 0 0.608 20.448 39.168 0.64zM1023.52 446.208c-0.832 19.04-1.664 38.112-2.496 57.12-3.84 24.192-2.432 48.864-6.72 72.128-2.016 12.864-4 25.792-5.984 38.656-7.04 32.224-13.856 62.752-24.96 90.528-20.576 51.52-52.32 94.88-96.544 122.752-94.752 59.68-235.68 68.992-390.72 68.576-15.456-0.256-30.944-0.48-46.4-0.736-9.472-0.352-18.944-0.672-28.448-1.024-6.72-0.32-13.472-0.64-20.224-0.992-18.208-1.408-36.448-2.816-54.624-4.256-9.888-1.184-19.808-2.304-29.696-3.488-22.176-4.128-44.128-6.464-64.864-11.712-95.648-24.32-151.648-60.192-195.872-136.16-21.984-37.728-31.232-84.16-41.92-133.472-2.24-16.64-4.48-33.248-6.72-49.888-1.568-19.776-3.168-39.584-4.736-59.36-0.256-6.72-0.48-13.472-0.768-20.224-0.576-18.208-1.152-36.448-1.728-54.624l0-55.616c0.32-17.12 0.672-34.272 1.024-51.36 0.384-11.904 0.832-23.808 1.248-35.68 0.48-8.064 1.024-16.128 1.504-24.192 3.456-21.664 2.624-43.744 6.464-64.64 5.92-31.936 9.824-62.816 18.72-91.296 24.096-77.344 60.384-129.088 124.256-166.624 28.512-16.768 62.624-27.52 98.56-36.672 13.312-2.656 26.592-5.312 39.904-8 16.64-2.24 33.28-4.48 49.888-6.72 21.28-1.664 42.592-3.328 63.872-4.992 7.232-0.256 14.496-0.48 21.696-0.736 15.328-0.416 30.624-0.832 45.92-1.248 7.648-0.096 15.296-0.192 22.944-0.256l31.904 0c20.8 0.32 41.6 0.64 62.4 1.024 5.984 0.256 12 0.48 17.952 0.736 17.792 1.152 35.616 2.336 53.408 3.52 15.232 1.664 30.432 3.328 45.664 4.992 34.208 6.336 66.848 10.912 97.056 20.448 65.536 20.672 114.208 53.728 149.696 104.288 27.328 38.88 41.376 88.288 53.408 142.688 2.592 16.864 5.184 33.76 7.712 50.624 1.856 20.096 3.648 40.256 5.504 60.384 0.32 7.232 0.672 14.464 1.024 21.696 0.64 16.448 1.312 32.928 2.016 49.408l0 13.248c0.096 7.648 0.16 15.296 0.256 22.976l0 54.88c-0.192 7.808-0.352 15.616-0.512 23.424zM331.328 87.51999999999998c-32.64 0-59.328 26.688-59.328 59.296l0 513.888c0 32.608 26.72 59.296 59.328 59.296l276.864 0c32.64 0 59.328-26.688 59.328-59.296l0-273.824c-13.632-0.864-26.88-3.2-39.552-6.848l0 260.896-316.448 0 0-395.296 188.576 0c-3.168-13.472-4.864-27.52-4.864-41.92-0.032-44.064 15.552-84.544 41.568-116.192l-205.472 0zM679.424 48.928c-85.664-0.032-155.232 69.376-155.168 154.784 0.064 85.376 69.472 154.656 154.976 154.624 85.664 0 155.168-69.472 155.04-154.88-0.128-85.184-69.6-154.496-154.816-154.528z"  horiz-adv-x="1025" />

    
    <glyph glyph-name="shouji" unicode="&#58902;" d="M755.809524-128 268.190476-128C214.332952-128 170.666667-84.333714 170.666667-30.47619L170.666667 798.47619C170.666667 852.333714 214.332952 896 268.190476 896L755.809524 896C809.667048 896 853.333333 852.333714 853.333333 798.47619L853.333333-30.47619C853.333333-84.333714 809.667048-128 755.809524-128ZM804.571429 798.47619C804.571429 825.417143 782.750476 847.238095 755.809524 847.238095L268.190476 847.238095C241.249524 847.238095 219.428571 825.417143 219.428571 798.47619L219.428571 774.095238 804.571429 774.095238 804.571429 798.47619ZM804.571429 725.333333 219.428571 725.333333 219.428571 42.666667 804.571429 42.666667 804.571429 725.333333ZM804.571429-6.095238 219.428571-6.095238 219.428571-30.47619C219.428571-57.417143 241.249524-79.238095 268.190476-79.238095L755.809524-79.238095C782.750476-79.238095 804.571429-57.417143 804.571429-30.47619L804.571429-6.095238Z"  horiz-adv-x="1024" />

    
    <glyph glyph-name="gouwuche" unicode="&#58907;" d="M1007.4 670.3c-4.6 5.9-11.7 9.7-19.2 9.7L201.2 680 167.8 855.5C165.6 867 155.5 875 143.7 875L34 875C20.5 875 9.6 864 9.6 850.5S20.5 826 34 826l89.5 0L155 650.6c0-0.1 0-0.2 0-0.4l98.8-513.6C256 125.10000000000002 267 117 278.7 117l587.2 0c13.5 0 24.5 11 24.5 24.5s-11 24.5-24.5 24.5L298.9 166l-15.1 77.2 612.3-3.2c0 0 0 0 0 0 11.3 0 21.2 9.5 23.8 20.5l92 389C1013.7 656.9 1012 664.5 1007.4 670.3zM876.8 292.29999999999995l-602.3 1.2-44.6 233.9L210.5 630l746.8 0L876.8 292.29999999999995zM353.1 66.60000000000002c-47.2 0-85.6-38.4-85.6-85.6s38.4-85.6 85.6-85.6c47.2 0 85.6 38.4 85.6 85.6S400.3 66.60000000000002 353.1 66.60000000000002zM353.1-55.799999999999955c-20.2 0-36.7 16.5-36.7 36.7 0 20.2 16.5 36.7 36.7 36.7 20.2 0 36.7-16.5 36.7-36.7C389.8-39.299999999999955 373.3-55.799999999999955 353.1-55.799999999999955zM769 66.60000000000002c-47.2 0-85.6-38.4-85.6-85.6s38.4-85.6 85.6-85.6c47.2 0 85.6 38.4 85.6 85.6S816.3 66.60000000000002 769 66.60000000000002zM769-55.799999999999955c-20.2 0-36.7 16.5-36.7 36.7 0 20.2 16.5 36.7 36.7 36.7 20.2 0 36.7-16.5 36.7-36.7C805.7-39.299999999999955 789.3-55.799999999999955 769-55.799999999999955z"  horiz-adv-x="1024" />

    
    <glyph glyph-name="7tianwuliyoutuihuo" unicode="&#58898;" d="M88.756659 50.737673c0.030206 0.6887 0.070481 1.374379 0.104715 2.062071C88.7919 52.122121 88.756659 51.433421 88.756659 50.737673zM462.42148 118.202038c13.860582-4.042586 28.369589 3.918741 32.411168 17.78033l143.447862 483.399631c0.469202 1.456942 0.811538 2.970269 1.01996 4.526891 0.009062 0.066453 0.017117 0.1319 0.024165 0.198354 0.042289 0.336295 0.079543 0.674603 0.108742 1.014926 0.013089 0.142976 0.022151 0.285951 0.03222 0.428927 0.020137 0.269841 0.036247 0.539683 0.046316 0.811538 0.008055 0.19936 0.012082 0.397714 0.01611 0.596067 0.002014 0.14801 0.011076 0.295013 0.011076 0.443023 0 0.084577-0.006041 0.168147-0.007048 0.251718-0.002014 0.207415-0.008055 0.412817-0.015103 0.619225-0.008055 0.240642-0.017117 0.482291-0.031213 0.721926-0.010069 0.162106-0.023158 0.323205-0.036247 0.484305-0.022151 0.290986-0.04833 0.581971-0.08055 0.869936-0.009062 0.082563-0.021144 0.165127-0.031213 0.246683-1.437811 11.796497-10.728207 21.161402-22.489464 22.712989-0.040275 0.005034-0.08055 0.010069-0.120824 0.015103-0.355425 0.045309-0.711858 0.08357-1.070304 0.114783-0.135928 0.012082-0.272862 0.021144-0.407783 0.031213-0.270848 0.019131-0.54069 0.03524-0.813552 0.046316-0.209429 0.008055-0.416844 0.012082-0.625267 0.01611-0.137941 0.002014-0.273869 0.010069-0.41181 0.010069L331.902845 653.542101c-14.437519 0-26.13937-11.702858-26.13937-26.140377 0-14.436512 11.702858-26.140377 26.13937-26.140377L578.36969 601.261347 444.64115 150.611192C440.600578 136.749603 448.560898 122.240596 462.42148 118.202038zM936.486413 524.90128C887.318903 712.866923 724.93583 858.836996 520.280298 877.550695 259.159457 901.42662 28.120892 709.102234 4.24396 447.978372c-23.879952-261.120841 168.446448-492.1584 429.569303-516.037345 204.538735-18.705644 390.578235 95.271113 473.095317 271.03449 1.884862 3.209904 3.114251 6.871893 3.475718 10.82386 1.313966 14.354956-9.255156 27.047568-23.60709 28.362541-10.680884 0.975658-20.443503-4.635633-25.278496-13.485019-0.001007-0.002014-0.006041-0.002014-0.007048-0.004027-0.007048-0.01611-0.015103-0.030206-0.021144-0.046316-0.477257-0.875978-0.902156-1.785182-1.279733-2.721572-67.366698-143.999627-213.794898-243.780514-383.272381-243.780514-233.407732 0-422.621895 189.213156-422.621895 422.620888 0 233.407732 189.214163 422.621895 422.621895 422.621895 195.841386 0 360.559392-133.212015 408.511609-313.965443l-75.605921-17.029204 103.938256-76.644005c0.425906-0.343343 0.870943-0.661514 1.322021-0.974651 5.295133-3.68414 12.045194-5.240762 18.833516-3.711325 6.791343 1.529437 12.221397 5.829781 15.426266 11.426976l0.776297 1.44788 61.044557 113.804582L936.486413 524.90128z"  horiz-adv-x="1027" />

    
    <glyph glyph-name="huoche" unicode="&#59000;" d="M864.39136256 892.47326435L167.40359282 892.47326435c-54.90233344 0-103.43247986-46.89314702-103.43247986-101.79548046L63.9711141 155.92158548999998c0-54.90233344 48.53131037-97.08357859 103.43247985-97.08357859l44.69612317 0-96.8937984-143.80324637c-7.72393301-11.36468423-4.77011627-27.47037696 6.60038883-35.20129706 4.28460601-2.90491619 9.15252338-4.61293682 13.96571933-4.61293682 7.96727069 0 15.79482681 4.90401109 20.61384363 11.98991018l115.91139442 171.62756893 487.97002752 0L880.90339442-113.31000319999998c4.84928853-6.86701227 12.54295097-11.15976818 20.35886307-11.15976818 4.95873251 0 9.96636558 1.17244473 14.33014386 4.24734834 11.23079054 7.92419214 13.91099677 24.54566798 5.9798198 35.77645853l-100.37154816 143.28280632 43.19068957 0c54.90233344 0 96.08694215 42.18241024 96.08694215 97.0835786L960.47830357 790.67778275C960.47830357 845.58011619 919.29369486 892.47326435 864.39136256 892.47326435zM910.41361693 157.52249116999997c0-27.49482781-22.28926464-49.78525639-49.7852564-49.7852564L163.82105714 107.73723476999999c-27.49482781 0-49.78525639 22.28926464-49.78525639 49.7852564L114.03580075 792.62332018c0 27.49482781 22.28926464 49.78525639 49.78525639 49.78525639l696.80846734 0c27.49482781 0 49.78525639-22.28926464 49.78525639-49.78525639L910.41478087 157.52249116999997zM847.54168377 706.02305422c0 41.24282311-33.43389696 74.67672007-74.67672007 74.67672007L250.42132309 780.69977429c-41.24282311 0-74.67672007-33.43389696-74.67672007-74.67672007l0-224.38410695c0-41.24282311 33.43389696-74.67672007 74.67672007-74.67672007l522.44364061 0c41.24282311 0 74.67672007 33.43389696 74.67672007 74.67672007L847.54168377 706.02305422zM798.64129195 481.91837867c0-13.74799645-11.14463232-24.89262877-24.89262877-24.89262877l-523.04790983 0c-13.74799645 0-24.89262877 11.14463232-24.89262876 24.89262877l0 223.82408135c0 13.74799645 11.14463232 24.89262877 24.89262876 24.89262876l523.04790983 0c13.74799645 0 24.89262877-11.14463232 24.89262877-24.89262876L798.64129195 481.91837867zM241.58898176 329.19663161000005c-37.74528171 0-68.45356373-30.71410403-68.45356373-68.45356374s30.70828203-68.45356373 68.45356373-68.45356373 68.45356373 30.71410403 68.45356373 68.45356373S279.33426233 329.19663161000005 241.58898176 329.19663161000005zM241.58898176 229.62611883c-17.15588779 0-31.1157851 13.95291136-31.1157851 31.1157851s13.95989731 31.1157851 31.1157851 31.1157851c17.15588779 0 31.1157851-13.95291136 31.1157851-31.1157851S258.74486841 229.62611883 241.58898176 229.62611883zM776.77583019 329.19663161000005c-37.74528171 0-68.45356373-30.71410403-68.45356374-68.45356374s30.70828203-68.45356373 68.45356374-68.45356373 68.45356373 30.71410403 68.45356373 68.45356373S814.52111189 329.19663161000005 776.77583019 329.19663161000005zM776.77583019 229.62611883c-17.15588779 0-31.1157851 13.95291136-31.1157851 31.1157851s13.95989731 31.1157851 31.1157851 31.1157851c17.15588779 0 31.1157851-13.95291136 31.1157851-31.1157851S793.93171797 229.62611883 776.77583019 229.62611883z"  horiz-adv-x="1024" />

    
    <glyph glyph-name="buoumaotubiao03" unicode="&#58882;" d="M502.365091 375.156364c-140.404364 0-254.603636 114.222545-254.603636 254.626909 0 140.381091 114.222545 254.580364 254.603636 254.580364s254.603636-114.199273 254.603636-254.580364C756.968727 489.378909 642.769455 375.156364 502.365091 375.156364zM502.365091 837.818182c-114.734545 0-208.058182-93.323636-208.058182-208.034909 0-114.734545 93.346909-208.081455 208.058182-208.081455s208.058182 93.346909 208.058182 208.081455C710.423273 744.494545 617.099636 837.818182 502.365091 837.818182zM918.341818-31.348364c-12.846545 0-23.272727 10.426182-23.272727 23.272727 0 211.223273-171.845818 383.069091-383.092364 383.069091-211.223273 0-383.045818-171.845818-383.045818-383.069091 0-12.846545-10.426182-23.272727-23.272727-23.272727s-23.272727 10.426182-23.272727 23.272727c0 236.893091 192.721455 429.614545 429.591273 429.614545 236.893091 0 429.637818-192.721455 429.637818-429.614545C941.614545-20.922182 931.188364-31.348364 918.341818-31.348364zM828.16-116.363636 264.215273-116.363636c-12.846545 0-23.272727 10.426182-23.272727 23.272727s10.426182 23.272727 23.272727 23.272727l563.944727 0c36.887273 0 66.909091 30.045091 66.909091 66.932364 0 12.846545 10.426182 23.272727 23.272727 23.272727s23.272727-10.426182 23.272727-23.272727C941.614545-65.466182 890.717091-116.363636 828.16-116.363636zM113.594182-111.778909c-10.868364 0-20.573091 7.633455-22.784 18.688-5.585455 27.764364-8.401455 56.366545-8.401455 85.038545 0 236.893091 192.721455 429.614545 429.591273 429.614545 236.893091 0 429.614545-192.721455 429.614545-429.614545 0-12.846545-10.426182-23.272727-23.272727-23.272727s-23.272727 10.426182-23.272727 23.272727c0 211.223273-171.845818 383.069091-383.069091 383.069091-211.223273 0-383.045818-171.845818-383.045818-383.069091 0-25.6 2.513455-51.106909 7.493818-75.845818 2.536727-12.613818-5.632-24.878545-18.222545-27.415273C116.642909-111.639273 115.106909-111.778909 113.594182-111.778909z"  horiz-adv-x="1024" />

    
    <glyph glyph-name="xiajiantou" unicode="&#58891;" d="M1003.61543567 637.11425194c16.23027261-20.80595291 17.59249863-46.8861622 3.03880988-58.24968135l-474.67144991-370.25746944c-3.28331149-2.57309241-13.83182564-8.90685667-15.62483937-10.89780166-17.68564167-19.54851385-43.11384633-25.41656065-56.82924203-13.04010412l-447.04272839 403.12551878c-13.7153957 12.38809943-10.54851297 38.30530734 7.13712867 57.90039271 17.68564167 19.58344247 43.11384633 25.42820354 56.87581357 13.05174697l406.85126313-366.86937086 464.50715419 362.34026325C962.45760569 665.58126534 987.42009174 657.90856076 1003.61543567 637.11425194z"  horiz-adv-x="1024" />

    
    <glyph glyph-name="xiaoxi" unicode="&#59002;" d="M511.702003 896C230.045029 896 0.303497 688.338231 0.303497 432.936974c0-115.168763 46.5455-224.967583 131.878583-310.299666V-98.749314c0-11.337878 6.562929-21.481769 16.707821-26.255718 4.176955-1.789981 8.35391-2.983968 12.530865-2.983968 6.563929 0 13.127859 2.386974 17.901808 6.563929L345.213792 12.839487c12.531865 10.143891 14.321846 28.045699 4.176955 40.577564-10.143891 12.530865-28.045699 14.321846-40.577564 4.176955L189.467465-38.479962V134.572179c0 7.757917-2.983968 15.514833-8.950904 20.885776-78.769154 75.784186-122.329686 174.245128-122.329686 277.479019 0 223.177603 203.484814 405.180647 453.515128 405.180648 250.029314 0 453.515128-182.003045 453.515128-405.180648s-203.485814-405.179647-453.515128-405.179647h-3.579961c-16.112827 0-28.643692-12.530865-28.643693-28.642692 0-16.111827 12.530865-29.239686 28.642693-29.239686h4.176955c282.253968 0 511.398506 207.661769 511.398506 463.062025C1023.696503 688.338231 793.954971 896 511.702003 896zM231.238016 480.079468c-12.530865-12.531865-19.691788-29.836679-19.691788-47.739487 0-17.304814 7.160923-35.206622 19.691788-47.737487 12.531865-12.531865 29.836679-19.692788 47.739487-19.692789 17.304814 0 35.206622 7.160923 47.737487 19.692789 12.531865 12.530865 19.692788 29.836679 19.692789 47.738487 0 17.304814-7.160923 35.206622-19.692789 47.738487-12.530865 12.530865-29.836679 19.691788-47.738487 19.691788-17.901808 0-35.206622-7.159923-47.738487-19.691788z m328.202474-95.476974c12.530865 12.530865 19.691788 29.836679 19.691789 47.738487 0 17.304814-7.160923 35.206622-19.691789 47.738487-12.531865 12.530865-29.836679 19.691788-47.739487 19.691788-17.304814 0-35.206622-7.159923-47.737487-19.691788-12.531865-12.531865-19.692788-29.836679-19.692788-47.739487 0-17.304814 7.160923-35.206622 19.692788-47.737487 12.530865-12.531865 29.836679-19.692788 47.738487-19.692789 17.901808 0 35.206622 7.757917 47.738487 19.692789z m233.321494 0c12.530865 12.530865 19.691788 29.836679 19.691788 47.738487 0 17.304814-7.160923 35.206622-19.691788 47.738487-12.531865 12.530865-29.836679 19.691788-47.739487 19.691788-17.304814 0-35.206622-7.159923-47.737487-19.691788-12.531865-12.531865-19.692788-29.836679-19.692789-47.739487 0-17.304814 7.160923-35.206622 19.692789-47.737487 12.530865-12.531865 29.836679-19.692788 47.738487-19.692789 17.901808 0 35.206622 7.757917 47.738487 19.692789z"  horiz-adv-x="1024" />

    
    <glyph glyph-name="shouye" unicode="&#58894;" d="M999.594667 413.4912c-5.410133 0-10.8544 1.792-15.394134 5.4784L504.1664 810.325333 40.0896 419.2256A24.405333 24.405333 0 0 0 8.6528 456.533333L488.209067 860.637867a24.456533 24.456533 0 0 0 31.1296 0.256l495.701333-404.104534a24.405333 24.405333 0 0 0-15.445333-43.298133zM794.862933-98.3552H223.744a121.514667 121.514667 0 0 0-121.361067 121.361067V400.162133a24.405333 24.405333 0 0 0 48.776534 0v-377.156266a72.669867 72.669867 0 0 1 72.6016-72.6016h571.118933a72.669867 72.669867 0 0 1 72.6016 72.6016V400.162133a24.405333 24.405333 0 0 0 48.776533 0v-377.156266c-0.017067-66.9184-54.4768-121.361067-121.3952-121.361067z"  horiz-adv-x="1024" />

    
    <glyph glyph-name="jiangpai" unicode="&#58886;" d="M1009.00928 812.808a30.424 30.424 0 0 1-41.736-10.776l-138.584-235.08a403.256 403.256 0 0 1-75.072 68.88l104.056 179.52a30.48 30.48 0 0 1-11.072 41.664 30.48 30.48 0 0 1-41.68-11.088L701.32928 667.2a398.04 398.04 0 0 1-178.608 42.176 397.904 397.904 0 0 1-191.432-48.824L220.76928 846.232a30.528 30.528 0 0 1-41.792 10.6 30.512 30.512 0 0 1-10.6-41.792l111.784-187.784a403.592 403.592 0 0 1-70.08-68.536L56.28928 802.8a30.48 30.48 0 0 1-51.584-32.504l168.16-266.888a397.952 397.952 0 0 1-50.592-194.544c0-220.84 179.648-400.488 400.456-400.488 220.856 0 400.552 179.64 400.552 400.488a398.032 398.032 0 0 1-55.872 203.704l152.384 258.496a30.504 30.504 0 0 1-10.784 41.744zM522.72128-30.65599999999995c-187.184 0-339.496 152.32-339.496 339.52 0 187.232 152.304 339.544 339.496 339.544 187.248 0 339.592-152.32 339.592-339.544 0-187.2-152.344-339.52-339.592-339.52zM703.80928 378.696L597.60928 394.152 550.08128 490.4c-10.272 20.824-44.4 20.792-54.672-0.016l-47.496-96.232-106.224-15.456a30.456 30.456 0 0 1-16.88-51.968l76.856-74.92-18.136-105.8a30.44 30.44 0 0 1 12.12-29.8 30.4 30.4 0 0 1 32.104-2.32l95 49.92 95.064-49.952a30.424 30.424 0 0 1 32.088 2.344 30.48 30.48 0 0 1 12.12 29.8l-18.184 105.824 76.88 74.896a30.48 30.48 0 0 1-16.912 51.976zM589.81728 284.27200000000005a30.416 30.416 0 0 1-8.768-26.968l10.44-60.72-54.552 28.632a30.36 30.36 0 0 1-28.36 0l-54.52-28.632 10.416 60.72a30.392 30.392 0 0 1-8.768 26.968l-44.104 42.984 60.952 8.872a30.488 30.488 0 0 1 22.952 16.664l27.256 55.248 27.296-55.248a30.464 30.464 0 0 1 22.936-16.664l60.928-8.872-44.104-42.984z"  horiz-adv-x="1024" />

    
    <glyph glyph-name="mudedi" unicode="&#59549;" d="M128 0h768v-42.667h-768v42.667zM512 18.133s-167.936 103.957-179.413 112c-33.557 23.467-59.691 44.075-77.013 61.44-65.633 65.46-106.24 155.984-106.24 255.993 0 0.153 0 0.305 0 0.457-0 200.275 162.368 362.643 362.667 362.643s362.667-162.368 362.667-362.667c0-97.493-38.656-188.885-106.24-256.427-17.323-17.365-43.456-37.973-77.013-61.44-11.477-8.043-179.413-112-179.413-112zM666.965 165.099c31.68 22.144 56.107 41.429 71.317 56.619 57.897 57.736 93.718 137.583 93.718 225.797 0 0.171-0 0.341-0 0.512 0 176.699-143.275 319.973-320 319.973-176.725 0-320-143.275-320-320 0-86.037 34.091-166.635 93.717-226.283 15.211-15.189 39.637-34.475 71.317-56.619 11.157-7.808 145.557-92.331 154.453-97.493 9.92 5.163 144.32 89.685 155.477 97.493zM512 277.333c-94.257 0-170.667 76.41-170.667 170.667s76.41 170.667 170.667 170.667c94.257 0 170.667-76.41 170.667-170.667 0-94.257-76.41-170.667-170.667-170.667zM512 320c70.692 0 128 57.308 128 128s-57.308 128-128 128c-70.692 0-128-57.308-128-128 0-70.692 57.308-128 128-128z"  horiz-adv-x="1024" />

    
    <glyph glyph-name="menpiao" unicode="&#58892;" d="M1002.51511467 6.1303466699999944H314.933248c0 31.62658133-25.673728 57.294848-57.30030933 57.294848-31.65934933 0-57.30030933-25.66826667-57.30030934-57.294848H85.73201067c-31.65934933 0-57.30030933 25.63549867-57.30030934 57.294848V693.68490667c0 31.653888 25.64096 57.294848 57.30030934 57.294848h114.60061866c0-31.62658133 25.64096-57.26754133 57.30030934-57.26754134 31.62658133 0 57.30030933 25.64096 57.30030933 57.26754134h687.587328c31.62658133 0 57.294848-25.64096 57.294848-57.294848v-630.259712c0-31.65934933-25.673728-57.294848-57.30030933-57.294848z m0 687.58186666H356.33015467c-19.857408-34.12241067-56.38280533-57.30030933-98.697216-57.30030933S178.78766933 659.58980267 158.93572267 693.7122133299999H85.737472v-630.28701866h73.19825067c19.857408 34.095104 56.38280533 57.30030933 98.697216 57.30030933s78.84526933-23.20520533 98.697216-57.30030933h646.18496V693.7122133299999zM501.14833067 493.166592h372.44654933a14.33053867 14.33053867 0 0 0 14.32507733-14.32507733v-28.65015467a14.33053867 14.33053867 0 0 0-14.32507733-14.32507733H501.14833067a14.33053867 14.33053867 0 0 0-14.32507734 14.32507733v28.65015467a14.336 14.336 0 0 0 14.32507734 14.32507733z m0-171.89546667h372.44654933a14.33053867 14.33053867 0 0 0 14.32507733-14.32507733v-28.672a14.30869333 14.30869333 0 0 0-14.32507733-14.29777067H501.14833067a14.30869333 14.30869333 0 0 0-14.32507734 14.29777067v28.672a14.336 14.336 0 0 0 14.32507734 14.32507733z m-229.19031467-143.245312h-28.65015467a14.32507733 14.32507733 0 0 0-14.32507733 14.319616v143.245312a14.33053867 14.33053867 0 0 0 14.32507733 14.32507734h28.65015467a14.33053867 14.33053867 0 0 0 14.32507733-14.32507734v-143.245312a14.32507733 14.32507733 0 0 0-14.32507733-14.319616z m0 229.163008h-28.65015467a14.33053867 14.33053867 0 0 0-14.32507733 14.32507734V564.7919786699999a14.33053867 14.33053867 0 0 0 14.32507733 14.32507733h28.65015467a14.33053867 14.33053867 0 0 0 14.32507733-14.32507733V421.51936a14.33053867 14.33053867 0 0 0-14.32507733-14.33053867z"  horiz-adv-x="1084" />

    
    <glyph glyph-name="fanhuidingbu" unicode="&#58915;" d="M1011.59822222 336.55466666999996L568.54755555 843.20711111h416.3128889c14.10844445 0 25.48622222 11.37777778 25.48622222 25.48622222 0 14.10844445-11.37777778 25.48622222-25.48622222 25.48622222H40.84622222c-14.10844445 0-25.48622222-11.37777778-25.48622222-25.48622222 0-14.10844445 11.37777778-25.48622222 25.48622222-25.48622222h414.49244445L13.08444445 336.55466666999996c-9.32977778-10.58133333-8.192-26.73777778 2.38933333-36.06755556s26.73777778-8.192 36.06755555 2.38933334l434.85866667 498.1191111v-901.46133333c0-14.10844445 11.37777778-25.48622222 25.48622222-25.48622222 14.10844445 0 25.48622222 11.37777778 25.48622223 25.48622222V801.10933333l435.76888888-498.23288888c9.32977778-10.58133333 25.37244445-11.71911111 36.06755556-2.38933334 10.69511111 9.32977778 11.71911111 25.48622222 2.38933333 36.06755556z"  horiz-adv-x="1024" />

    
    <glyph glyph-name="shalou" unicode="&#58996;" d="M427.16113983-118.74880114999996c-6.28435986 0-15.71090034 3.14218063-18.85307957 3.14218063-12.56871971 6.28435986-18.85307957 21.9952602-18.85308097 34.56397991V258.31280006l-345.63980053 496.46444129c-6.28435986 12.56871971-12.56871971 28.27962006-3.14217923 43.99051902 6.28435986 9.42654048 18.85307957 18.85307957 34.56397992 18.85308094h857.81514077c15.71090034 0 28.27962006-6.28435986 34.56398129-18.85308094 6.28435986-12.56871971 3.14218063-28.27962006-3.14218062-37.70615915L621.97629962 258.31280006v-260.80094036c0-15.71090034-6.28435986-28.27962006-21.99525884-34.56397992l-157.10900062-78.5545003c-6.28435986-3.14218063-9.42654048-3.14218063-15.71090033-3.14218063"  horiz-adv-x="1024" />

    
    <glyph glyph-name="bofang" unicode="&#59252;" d="M925.58944332 437.02428761L261.018372 868.28849345c-38.88447758 21.20971504-84.83886017 10.60485751-84.83886016-56.5592401V-40.194300829999975c0-70.69905013 49.48933509-81.30390766 84.83886016-56.55924012l664.57107132 434.79915835c38.88447758 21.20971504 38.88447758 74.23400265 0 98.97867021zM246.87856197-11.914680790000034V783.44963328L876.10010823 384 246.87856197-11.914680790000034z"  horiz-adv-x="1024" />

    
    <glyph glyph-name="F" unicode="&#59003;" d="M884.689763 415.289996H146.883612M146.883612 539.652783H884.689763v-19.132736H146.883612zM146.883612 520.520047H884.689763V501.38731H146.883612zM146.883612 501.38731H884.689763v-19.132736H146.883612zM146.883612 482.254574H884.689763v-19.132737H146.883612zM146.883612 463.121837H884.689763v-19.132736H146.883612zM146.883612 443.989101H884.689763v-19.132737H146.883612zM146.883612 424.856364H884.689763v-19.132736H146.883612zM146.883612 405.723628H884.689763v-19.132737H146.883612zM146.883612 386.590891H884.689763v-19.132736H146.883612zM146.883612 367.458155H884.689763v-19.132737H146.883612zM146.883612 348.325418H884.689763v-19.132736H146.883612zM146.883612 310.059946H884.689763v-19.132737H146.883612zM146.883612 329.192682H884.689763v-19.132736H146.883612zM158.442974-128H139.310237V896h745.379526v-19.132736H158.442974zM177.57571-128H158.442974V876.867264H884.689763v-19.132737H177.57571zM196.708447-128H177.57571V857.734527H884.689763v-19.132736H196.708447zM215.841183-128h-19.132736V838.601791H884.689763v-19.132737H215.841183zM234.97392-128h-19.132737V819.469054H884.689763V800.336318H234.97392zM254.106656-128H234.97392V800.336318h649.715843v-19.132737H254.106656zM273.239393-128h-19.132737V781.203581H884.689763v-19.132736H273.239393zM292.372129-128h-19.132736V762.070845H884.689763v-19.132737H292.372129zM311.504866-128h-19.132737V742.938108H884.689763v-19.132736H311.504866zM330.637602-128h-19.132736V723.805372H884.689763V704.672635H330.637602zM349.770339-128H330.637602V704.672635h554.052161v-19.132736H349.770339zM388.035812-128h-19.132737V666.407162H884.689763v-19.132736H388.035812zM368.903075-128h-19.132736V685.539899H884.689763v-19.132737H368.903075z"  horiz-adv-x="1024" />

    
    <glyph glyph-name="qizi" unicode="&#58905;" d="M228.69333333 201.70666667V745.28c-1.92 13.86666667 1.49333333 34.98666667 16.85333334 54.50666667 32.64 41.06666667 106.77333333 61.86666667 220.37333333 61.86666666 70.72 0 119.25333333-44.37333333 158.29333333-80 23.04-21.01333333 44.8-40.85333333 64.53333334-45.76 59.2-14.50666667 153.92 29.54666667 185.38666666 47.78666667l49.70666667 28.8-67.73333333-495.14666667-8.42666667-6.93333333c-3.2-2.66666667-79.46666667-64.96-169.28-43.41333333-33.6 8.10666667-64.64 21.01333333-94.61333333 33.6C544.10666667 317.12 506.66666667 332.79999999999995 471.57333333 332.79999999999995c-123.52 0-193.28-75.84-193.92-76.58666667l-48.96-54.50666666z m242.88 187.30666666c46.29333333 0 90.88-18.56 133.86666667-36.58666666 27.94666667-11.73333333 56.85333333-23.78666667 86.08-30.82666667 48-11.52 93.76 13.97333333 111.89333333 26.02666667l49.70666667 363.30666666c-47.14666667-20.37333333-119.57333333-43.94666667-177.92-29.54666666-33.70666667 8.32-60.58666667 32.85333333-89.06666667 58.77333333-35.2 32.10666667-71.46666667 65.28-120.42666666 65.28-125.65333333 0-163.94666667-26.98666667-174.61333334-38.61333333-5.97333333-6.50666667-6.82666667-11.62666667-6.82666666-13.65333334l1.49333333-3.94666666-1.06666667-1.6V333.86666667c39.89333333 26.02666667 103.14666667 55.14666667 186.88 55.14666666z m358.18666667-57.06666666h0.10666667-0.10666667zM284.05333333 754.0266666699999M256.85333333-23.466666669999995c-15.46666667 0-28.05333333 12.58666667-28.05333333 28.05333334V741.12c0 15.46666667 12.58666667 28.05333333 28.05333333 28.05333333s28.05333333-12.58666667 28.05333334-28.05333333v-736.53333333c0.10666667-15.46666667-12.48-28.05333333-28.05333334-28.05333334zM262.72-93.65333333000001c-91.2 0-162.56 45.76-162.56 104.10666666s71.36 104.10666667 162.56 104.10666667 162.56-45.76 162.56-104.10666667-71.36-104.10666667-162.56-104.10666666z m0 152c-64.96 0-106.34666667-28.37333333-106.34666667-47.89333334s41.38666667-47.89333333 106.34666667-47.89333333 106.34666667 28.37333333 106.34666667 47.89333333-41.38666667 47.89333333-106.34666667 47.89333334z"  horiz-adv-x="1024" />

    
    <glyph glyph-name="saoma" unicode="&#58901;" d="M81.04820939 665.6915279h-54.37060742V874.24164347h194.82800988v-54.37060742H81.04820939zM999.00529778 665.6915279h-54.37060741V819.87103605H804.1772879v54.37060742h194.82800988zM220.59943506-106.24164346999999H25.77142518V102.30847210000002h54.37060741v-154.17950815h140.45740247zM998.22857482-106.24164346999999H803.40056494v54.37060742h140.45740247V102.30847210000002h54.37060741zM22.66453333 410.27912691h978.67093334v-54.37060741H22.66453333z"  horiz-adv-x="1024" />

    
    <glyph glyph-name="wifi" unicode="&#59032;" d="M229.71733333 360.78933333a34.13333333 34.13333333 0 1 0-49.83466666 46.42133334 447.82933333 447.82933333 0 0 0 664.23466666 0 34.13333333 34.13333333 0 1 0-49.83466666-46.42133334 379.904 379.904 0 0 1-564.56533334 0zM93.184 497.32266667a34.13333333 34.13333333 0 1 0-49.83466667 46.42133333 654.336 654.336 0 0 0 971.43466667 0 34.13333333 34.13333333 0 1 0-49.83466667-46.42133333 587.09333333 587.09333333 0 0 1-871.76533333 0zM364.88533333 222.89066666999997a34.13333333 34.13333333 0 0 0-47.104 49.152 281.25866667 281.25866667 0 0 0 388.43733334 0 34.13333333 34.13333333 0 0 0-47.104-49.152 214.016 214.016 0 0 1-294.22933334 0zM560.128 28.330666670000028a68.26666667 68.26666667 0 1 0 0 96.59733333 68.26666667 68.26666667 0 0 0 0-96.59733333z"  horiz-adv-x="1024" />

    
    <glyph glyph-name="shangjialiebiaoicon" unicode="&#59025;" d="M352 480C349.632 472.832 320 384 200 384 107.2 384 32 448 32 558.2080000000001 32 612.736 74.688 704 160 832h704c85.312-128 128-219.264 128-273.792C992 448 916.8 384 824 384 704 384 674.368 472.832 672 480 669.632 472.832 640 384 512 384S354.368 472.832 352 480zM829.44 768H194.56C128.64 665.344 96 592.768 96 558.2080000000001 96 488.448 137.344 448 200 448c53.888 0 79.232 16 91.264 52.224 19.456 58.368 102.016 58.368 121.472 0C424.576 464.64 452.352 448 512 448c59.648 0 87.424 16.64 99.264 52.224 19.456 58.368 102.016 58.368 121.472 0 12.032-36.224 37.376-52.224 91.264-52.224 62.72 0 104 40.512 104 110.208 0 34.56-32.64 107.136-98.56 209.792zM832 320a32 32 0 1 0 64 0v-224a160 160 0 0 0-160-160h-448A160 160 0 0 0 128 96V320a32 32 0 0 0 64 0v-224A96 96 0 0 1 288 0h448a96 96 0 0 1 96 96V320z m-480-128h320a32 32 0 1 0 0-64h-320a32 32 0 1 0 0 64z"  horiz-adv-x="1024" />

    
    <glyph glyph-name="fasong" unicode="&#59040;" d="M24.649143 496.64L965.485714 888.685714a29.257143 29.257143 0 0 0 39.643429-34.084571l-234.349714-937.472a29.257143 29.257143 0 0 0-47.104-15.36l-203.483429 169.545143a29.257143 29.257143 0 0 1-39.424-1.828572l-104.374857-104.301714a29.257143 29.257143 0 0 0-49.883429 20.626286V206.26285700000005a29.257143 29.257143 0 0 0 8.557715 20.699429l424.448 424.448-501.101715-375.881143a29.257143 29.257143 0 0 0-36.278857 0.950857L17.188571 447.195429a29.257143 29.257143 0 0 0 7.460572 49.444571z"  horiz-adv-x="1024" />

    
    <glyph glyph-name="daifukuan" unicode="&#59140;" d="M962.195652-127.985667H200.204807C89.8399-127.985667 0-38.174433 0 72.21914V695.795193C0 806.1601 89.811234 896 200.204807 896h762.005179c110.364906 0 200.204807-89.811234 200.204806-200.204807v-623.490055c-0.014333-110.479571-89.811234-200.290805-200.21914-200.290805zM200.204807 845.805467A150.210937 150.210937 0 0 1 50.151533 695.795193v-623.490055a150.210937 150.210937 0 0 1 150.038941-150.03894h762.005178a150.210937 150.210937 0 0 1 150.038941 149.952942V695.795193A150.210937 150.210937 0 0 1 962.195652 845.834134zM1135.898548 193.090212H760.858531a173.430567 173.430567 0 0 0 0 346.775135h373.62104v-50.165866H760.858531a123.264701 123.264701 0 0 1 0-246.443403H1135.898548zM783.132175 366.477779m-60.743697 0a60.743698 60.743698 0 1 1 121.487395 0 60.743698 60.743698 0 1 1-121.487395 0Z"  horiz-adv-x="1162" />

    
    <glyph glyph-name="fenxiang" unicode="&#58884;" d="M543.503059 793.931294l-2.831059-530.55247a30.117647 30.117647 0 0 0-60.235294 0.301176l2.800941 528.715294-160.768-160.768a30.117647 30.117647 0 0 0-42.586353 42.586353L492.845176 887.175529a30.117647 30.117647 0 0 0 42.586353 0l212.961883-212.961882a30.117647 30.117647 0 1 0-42.586353-42.586353l-162.334118 162.334118zM708.306824 504.470588a30.117647 30.117647 0 0 0 0 60.235294H873.411765a60.235294 60.235294 0 0 0 60.235294-60.235294v-572.235294a60.235294 60.235294 0 0 0-60.235294-60.235294H150.588235a60.235294 60.235294 0 0 0-60.235294 60.235294V504.470588a60.235294 60.235294 0 0 0 60.235294 60.235294h163.056941a30.117647 30.117647 0 0 0 0-60.235294H150.588235v-572.235294h722.82353V504.470588h-165.104941z"  horiz-adv-x="1024" />

    
    <glyph glyph-name="riqi" unicode="&#58895;" d="M509.49688889 105.81333332999998H567.75111111V384.11377778h-43.23555556c-18.65955555-10.92266667-38.912-18.09066667-68.26666666-23.32444445v-34.36088888h53.13422222v-220.61511112z m391.85066666 611.89688889h-77.824v27.76177778c0 39.936-32.42666667 72.36266667-72.36266666 72.36266667s-72.36266667-32.42666667-72.36266667-72.36266667v-27.76177778H345.088v27.76177778c0 39.936-32.42666667 72.36266667-72.36266667 72.36266667s-72.36266667-32.42666667-72.36266666-72.36266667v-27.76177778h-77.824c-61.44 0-111.27466667-49.83466667-111.27466667-111.27466667v-545.10933333c0-61.44 49.83466667-111.27466667 111.27466667-111.27466667h778.69511111c61.44 0 111.27466667 49.83466667 111.27466667 111.27466667V606.5493333300001c0.11377778 61.44-49.72088889 111.16088889-111.1608889 111.16088889z m-177.94844444 27.87555556c0 15.36 12.40177778 27.76177778 27.76177778 27.76177777 15.36 0 27.76177778-12.40177778 27.76177778-27.76177777v-66.78755556c0-15.36-12.40177778-27.76177778-27.76177778-27.76177777-15.36 0-27.76177778 12.40177778-27.76177778 27.76177777v66.78755556z m-478.43555556 0c0 15.36 12.40177778 27.76177778 27.76177778 27.76177777 15.36 0 27.76177778-12.40177778 27.76177778-27.76177777v-66.78755556c0-15.36-12.40177778-27.76177778-27.76177778-27.76177777-15.36 0-27.76177778 12.40177778-27.76177778 27.76177777v66.78755556z m723.17155556-684.25955556c0-36.864-29.92355555-66.78755555-66.78755556-66.78755555H122.65244445c-36.864 0-66.78755555 29.92355555-66.78755556 66.78755555V484.12444445h912.27022222v-422.79822223z m0 467.28533333H55.86488889v77.824c0 36.864 29.92355555 66.78755555 66.78755556 66.78755556h78.39288888c2.84444445-37.31911111 33.67822222-66.78755555 71.79377778-66.78755556 38.00177778 0 68.83555555 29.46844445 71.79377778 66.78755556h334.848c2.84444445-37.31911111 33.67822222-66.78755555 71.79377778-66.78755556 38.00177778 0 68.83555555 29.46844445 71.79377778 66.78755556h78.39288888c36.864 0 66.78755555-29.92355555 66.78755556-66.78755556v-77.824z"  horiz-adv-x="1024" />

    
    <glyph glyph-name="zhihuan" unicode="&#58998;" d="M390.763209 405.041096H100.195695A100.195695 100.195695 0 0 0 0 505.236791V795.804305A100.195695 100.195695 0 0 0 100.195695 896h290.567514a100.195695 100.195695 0 0 0 100.195695-100.195695v-290.567514a100.195695 100.195695 0 0 0-100.195695-100.195695zM100.195695 815.843444a20.039139 20.039139 0 0 1-20.039139-20.039139v-290.567514a20.039139 20.039139 0 0 1 20.039139-20.039139h290.567514a20.039139 20.039139 0 0 1 20.039139 20.039139V795.804305a20.039139 20.039139 0 0 1-20.039139 20.039139zM923.804305-128H633.236791a100.195695 100.195695 0 0 0-100.195695 100.195695V262.763209a100.195695 100.195695 0 0 0 100.195695 100.195695h290.567514a100.195695 100.195695 0 0 0 100.195695-100.195695v-290.567514a100.195695 100.195695 0 0 0-100.195695-100.195695zM633.236791 282.802348a20.039139 20.039139 0 0 1-20.039139-20.039139v-290.567514a20.039139 20.039139 0 0 1 20.039139-20.039139h290.567514a20.039139 20.039139 0 0 1 20.039139 20.039139V262.763209a20.039139 20.039139 0 0 1-20.039139 20.039139zM563.099804 10.270059H238.465753a100.195695 100.195695 0 0 0-100.195694 100.195694V324.88454a40.078278 40.078278 0 0 0 80.156555 0v-214.418787a20.039139 20.039139 0 0 1 20.039139-20.039139h324.634051a40.078278 40.078278 0 0 0 0-80.156555zM844.649706 403.037182a40.078278 40.078278 0 0 0-40.078277 40.078278V656.53229a20.039139 20.039139 0 0 1-20.039139 20.039139H470.919765a40.078278 40.078278 0 0 0 0 80.156555h313.612525a100.195695 100.195695 0 0 0 100.195694-100.195694v-213.41683a40.078278 40.078278 0 0 0-40.078278-40.078278z"  horiz-adv-x="1024" />

    
    <glyph glyph-name="caidan" unicode="&#58899;" d="M0-5.125336999999945h1105.91199399v-122.86132H0zM0 445.38396h1105.91199399v-122.88800601H0zM0 896h1105.91199399v-122.86132H0z"  horiz-adv-x="1105" />

    
    <glyph glyph-name="aixin" unicode="&#60577;" d="M171.712 324.352l0.352-0.32 287.904-252.8a64 64 0 0 1 82.912-1.344l296.832 244.544a215.584 215.584 0 1 1-301.824 300.576L512 579.328l-25.888 35.616a215.584 215.584 0 1 1-314.4-290.624zM32 488.416a279.584 279.584 0 0 0 480 194.944 279.584 279.584 0 0 0 480-194.944 278.144 278.144 0 0 0-113.024-224.512l-295.36-243.392a128 128 0 0 0-165.888 2.592L129.984 275.84000000000003A278.976 278.976 0 0 0 32 488.416z"  horiz-adv-x="1024" />

    
    <glyph glyph-name="xiangji" unicode="&#58930;" d="M839.68 527.36a40.96 40.96 0 1 0-40.96 40.96 40.96 40.96 0 0 0 40.96-40.96zM634.88 322.55999999999995a204.8 204.8 0 1 0-204.8 204.8 204.8 204.8 0 0 0 204.8-204.8z m-204.8 122.88a122.88 122.88 0 1 1 122.88-122.88 122.88 122.88 0 0 1-122.88 122.88z m389.12-491.52H204.8A204.8 204.8 0 0 0 0 158.72000000000003V527.36A204.8 204.8 0 0 0 204.8 732.16h61.44a40.96 40.96 0 0 0 0-81.92h-61.44a122.88 122.88 0 0 1-122.88-122.88v-368.64a122.88 122.88 0 0 1 122.88-122.88h614.4a122.88 122.88 0 0 1 122.88 122.88V527.36a122.88 122.88 0 0 1-122.88 122.88H512a40.96 40.96 0 0 0 0 81.92h307.2a204.8 204.8 0 0 0 204.8-204.8v-368.64a204.8 204.8 0 0 0-204.8-204.8zM491.52 773.12H286.72a40.96 40.96 0 0 0 0 81.92h204.8a40.96 40.96 0 0 0 0-81.92z"  horiz-adv-x="1024" />

    
    <glyph glyph-name="zuojiantou1" unicode="&#58896;" d="M776.5 884c-16 16-41.8 16-57.8 0L247.5 412.9c-15.9-15.9-15.9-41.8 0-57.7L718.7-116c8-8 18.4-12 28.9-12 10.4 0 20.9 4 28.9 12 15.9 15.9 15.9 41.8 0 57.7L334.1 384 776.5 826.3c15.9 16 15.9 41.8 0 57.7z"  horiz-adv-x="1024" />

    
    <glyph glyph-name="youjiantou1" unicode="&#58897;" d="M305.3 884c-16 16-41.8 16-57.8 0-15.9-15.9-15.9-41.8 0-57.7L689.9 384 247.5-58.299999999999955c-15.9-15.9-15.9-41.8 0-57.7 8-8 18.4-12 28.9-12s20.9 4 28.9 12l471.2 471.2c15.9 15.9 15.9 41.8 0 57.7L305.3 884z"  horiz-adv-x="1024" />

    
    <glyph glyph-name="erji" unicode="&#59464;" d="M575.40595621-59.841693469999996c-13.9493109 0-25.36238224 11.41307255-25.36238225 25.36238225s11.41307255 25.36238224 25.36238225 25.36238344c150.90617549 0 273.91373039 123.0075549 273.91373039 273.91373039 0 13.9493109 11.41307255 25.36238224 25.36238224 25.36238225s25.36238224-11.41307255 25.36238346-25.36238225c0-178.80479607-145.83369879-324.63849609-324.63849609-324.63849608zM898.77633312 477.84081514c-13.9493109 0-25.36238224 11.41307255-25.36238346 25.36238225C873.41394966 688.98264891 711.09470284 840.52288398 512 840.52288398S150.58605034 688.98264891 150.58605034 503.20319739c0-13.9493109-11.41307255-25.36238224-25.36238346-25.36238225s-25.36238224 11.41307255-25.36238224 25.36238225C99.86128464 717.51532908 285.00667658 891.24764967 512 891.24764967s412.13871536-173.73231938 412.13871536-388.04445228c0-13.9493109-11.41307255-25.36238224-25.36238224-25.36238225zM131.56426274 239.43442037h-12.68119052c-62.77189663 0-114.13072069 51.35882407-114.13072189 114.1307207v60.86971786c0 62.77189663 51.35882407 114.13072069 114.13072189 114.1307207h12.68119052c62.77189663 0 114.13072069-51.35882407 114.13072191-114.1307207v-60.86971786c0-62.77189663-51.35882407-114.13072069-114.13072191-114.1307207z m-12.68119052 238.40639477c-34.87327604 0-63.40595621-28.53268017-63.4059562-63.40595621v-60.86971786c0-34.87327604 28.53268017-63.40595621 63.4059562-63.40595621h12.68119052c34.87327604 0 63.40595621 28.53268017 63.40595621 63.40595621v60.86971786c0 34.87327604-28.53268017 63.40595621-63.40595621 63.40595621h-12.68119052zM905.11692778 239.43442037h-12.68119052c-62.77189663 0-114.13072069 51.35882407-114.13072191 114.1307207v60.86971786c0 62.77189663 51.35882407 114.13072069 114.13072191 114.1307207h12.68119052c62.77189663 0 114.13072069-51.35882407 114.13072189-114.1307207v-60.86971786c0-62.77189663-51.35882407-114.13072069-114.13072189-114.1307207z m-12.68119052 238.40639477c-34.87327604 0-63.40595621-28.53268017-63.40595621-63.40595621v-60.86971786c0-34.87327604 28.53268017-63.40595621 63.40595621-63.40595621h12.68119052c34.87327604 0 63.40595621 28.53268017 63.4059562 63.40595621v60.86971786c0 34.87327604-28.53268017 63.40595621-63.4059562 63.40595621h-12.68119052zM512-123.24764966999999c-48.82258572 0-88.76833845 39.94575273-88.76833845 88.76833845s39.94575273 88.76833845 88.76833845 88.76833966 88.76833845-39.94575273 88.76833845-88.76833966-39.94575273-88.76833845-88.76833845-88.76833845z m0 126.81191241c-20.92396513 0-38.04357396-17.11960762-38.04357396-38.04357396s17.11960762-38.04357396 38.04357396-38.04357276 38.04357396 17.11960762 38.04357396 38.04357276-17.11960762 38.04357396-38.04357396 38.04357396z"  horiz-adv-x="1024" />

    
    <glyph glyph-name="wode-copy" unicode="&#60578;" d="M936.76999111 857.31555555c27.06659555 0 44.66915555-28.48312889 32.56547556-52.69048888-24.33365333-48.66958222-45.92298667-92.75619555-64.76231112-132.25415112 59.91082667-82.18851555 92.87907555-181.42663111 92.87907556-285.62545777 0-268.10709333-217.34513778-485.45223111-485.45223111-485.45223111-268.10709333 0-485.45223111 217.34513778-485.45223111 485.45223111C26.54776889 654.8536888900001 243.89404445 872.19768889 512 872.19768889c78.93560889 0 155.19402667-18.89166222 223.62112-54.46769778C796.97009778 844.14350222 864.12174222 857.31555555 936.76999111 857.31555555zM749.90933333 744.24775111a36.40888889 36.40888889 0 0 0-33.79086222 1.19921778C654.45091555 780.62023111 584.63345778 799.37991111 512 799.37991111c-227.8912 0-412.63445333-184.74325333-412.63445333-412.63445333 0-227.8912 184.74325333-412.63445333 412.63445333-412.63445333 227.8912 0 412.63445333 184.74325333 412.63445333 412.63445333 0 95.32871111-32.38115555 185.60568889-90.85724444 258.34040889a36.40888889 36.40888889 0 0 0-4.55111111 38.35107555c14.02652445 29.72672 29.69827555 62.18865778 47.01525333 97.38808889-45.27217778-5.66158222-87.33582222-17.86424889-126.33201778-36.57728z m-444.22599111-190.33884444c26.81059555 0 48.54442667-21.73496889 48.54442667-48.54556445v-72.81777777c0-26.81059555-21.73383111-48.54556445-48.54442667-48.54556445C278.87274667 384 257.13777778 405.73496889 257.13777778 432.54556445v72.81777777c0 26.81059555 21.73496889 48.54442667 48.54556444 48.54442667z m194.17998223 0c26.81059555 0 48.54556445-21.73496889 48.54556444-48.54556445v-72.81777777C548.40888889 405.73496889 526.67392 384 499.86332445 384s-48.54442667 21.73496889-48.54442667 48.54556445v72.81777777c0 26.81059555 21.73383111 48.54442667 48.54442667 48.54442667z"  horiz-adv-x="1024" />

    


  </font>
</defs>
</svg>
